<?xml version="1.0" encoding="iso-8859-1"?>
<!-- Generator: Adobe Illustrator 19.0.0, SVG Export Plug-In . SVG Version: 6.00 Build 0)  -->
<svg version="1.1" id="Capa_1" xmlns="http://www.w3.org/2000/svg" xmlns:xlink="http://www.w3.org/1999/xlink" x="0px" y="0px"
	 viewBox="0 0 512 512" style="enable-background:new 0 0 512 512;" xml:space="preserve">
<g>
	<g>
		<path d="M482,345.979H30c-16.538,0-30,13.462-30,30c0,16.538,13.462,30,30,30h5.121c22.718,54.126,75.297,90,134.742,90h172.273
			c59.445,0,112.024-35.874,134.742-90H482c16.538,0,30-13.462,30-30C512,359.441,498.538,345.979,482,345.979z M342.137,465.979
			H169.863c-42.964,0-81.694-23.408-101.968-60h376.209C423.831,442.571,385.101,465.979,342.137,465.979z"/>
	</g>
</g>
<g>
	<g>
		<path d="M295.479,24.14c-25.153-10.825-53.774-10.825-78.946-0.007c-6.268,2.695-9.476,9.871-8.181,16.571l30.026,155.275h35.244
			l30.031-155.272C304.949,34.011,301.745,26.835,295.479,24.14z"/>
	</g>
</g>
<g>
	<g>
		<path d="M330.549,59.58l-26.378,136.399h20.208c6.46,0,12.187-4.116,14.238-10.254l35.026-105.088
			C360.132,72.273,345.875,64.998,330.549,59.58z"/>
	</g>
</g>
<g>
	<g>
		<path d="M181.456,59.577c-15.33,5.418-29.588,12.698-43.101,21.063l35.028,105.086c2.051,6.137,7.778,10.253,14.238,10.253h20.208
			L181.456,59.577z"/>
	</g>
</g>
<g>
	<g>
		<path d="M187.621,225.979c-19.367,0-36.563-12.394-42.687-30.767l-32.091-96.275C62.633,140.694,31,202.908,31,270.979v45h210v-90
			C210.85,225.979,236.217,225.979,187.621,225.979z"/>
	</g>
</g>
<g>
	<g>
		<path d="M399.156,98.935l-32.089,96.275c-6.124,18.375-23.319,30.769-42.688,30.769c-48.747,0-23.032,0-53.379,0v90h210v-45
			C481,202.908,449.367,140.69,399.156,98.935z"/>
	</g>
</g>
<g>
</g>
<g>
</g>
<g>
</g>
<g>
</g>
<g>
</g>
<g>
</g>
<g>
</g>
<g>
</g>
<g>
</g>
<g>
</g>
<g>
</g>
<g>
</g>
<g>
</g>
<g>
</g>
<g>
</g>
</svg>
