<?xml version="1.0" encoding="iso-8859-1"?>
<!-- Generator: Adobe Illustrator 19.0.0, SVG Export Plug-In . SVG Version: 6.00 Build 0)  -->
<svg version="1.1" id="Capa_1" xmlns="http://www.w3.org/2000/svg" xmlns:xlink="http://www.w3.org/1999/xlink" x="0px" y="0px"
	 viewBox="0 0 512 512" style="enable-background:new 0 0 512 512;" xml:space="preserve">
<g>
	<g>
		<path d="M497,360h-15v-75v-60c0-2.95-1.069-5.539-2.536-7.857c-0.311-0.494-0.564-0.927-0.93-1.381
			c-1.703-2.126-3.842-3.788-6.449-4.737c-0.137-0.049-0.2-0.203-0.339-0.249l-293.398-97.137c-0.531,2.664-0.515,5.425-1.527,7.987
			l-29.332,73.339L452,295.805V360h-15c-8.291,0-15,6.709-15,15v107h-35.543L334.33,288.867l-145.443-48.479L123.543,482H90v-46
			c0-8.291-6.709-15-15-15H60V270h15c6.138,0,11.646-3.735,13.931-9.434l51.896-129.739L0,187.156V255c0,8.291,6.709,15,15,15h15
			v151H15c-8.291,0-15,6.709-15,15v61c0,8.291,6.709,15,15,15h60h362h60c8.291,0,15-6.709,15-15V375
			C512,366.709,505.291,360,497,360z M339.391,421.437l-63.928-68.864l34.894-37.592L339.391,421.437z M283.33,300L255,330.527
			L226.67,300H283.33z M199.64,314.98l34.896,37.593l-63.928,69.866L199.64,314.98z M157.174,482L255,374.619L352.826,482H157.174z"
			/>
	</g>
</g>
<g>
	<g>
		<path d="M135,0H75c-2.329,0-4.629,0.542-6.709,1.582L14.319,28.568L150,82.842V15C150,6.709,143.291,0,135,0z"/>
	</g>
</g>
<g>
	<g>
		<polygon points="0,55.155 0,154.841 124.614,105 		"/>
	</g>
</g>
<g>
</g>
<g>
</g>
<g>
</g>
<g>
</g>
<g>
</g>
<g>
</g>
<g>
</g>
<g>
</g>
<g>
</g>
<g>
</g>
<g>
</g>
<g>
</g>
<g>
</g>
<g>
</g>
<g>
</g>
</svg>
